# xmcd CD database file generated by Grip 3.0.5
# 
# Track frame offsets:
#       150
#       14882
#       29752
#       48832
#       62250
#       75027
#       91185
#       108710
#       126602
#       147810
#       164037
# 
# Disc length: 2407 seconds
# 
# Revision: 2
# Processed by: cddbd v1.4PL0 Copyright (c) Steve Scherf et al.
# Submitted via: Grip 3.0.5
# 
DISCID=9309650b
DTITLE=Alabama - American pride
DYEAR=1992
DGENRE=Country
TTITLE0=Take a little trip
TTITLE1=Hometown honeymoon
TTITLE2=Once upon a lifetime
TTITLE3=You can't take the country out of me
TTITLE4=I'm in a hurry (and don't know why)
TTITLE5=Richard Petty fans
TTITLE6=Homesick fever
TTITLE7=Between the two of them
TTITLE8=American pride
TTITLE9=Sometimes out of touch
TTITLE10=Pictures and memories
EXTD=
EXTT0=
EXTT1=
EXTT2=
EXTT3=
EXTT4=
EXTT5=
EXTT6=
EXTT7=
EXTT8=
EXTT9=
EXTT10=
PLAYORDER=
